# xmcd
#
# Track frame offsets: 
#        150
#        12392
#        26320
#        39827
#        53427
#        64872
#        78572
#        92707
#        105090
#        117690
#        128867
#        141105
#        154780
#        168325
#        182857
#        197055
#        212985
#        227905
#        242472
#        257307
#        269610
#        283487
#        295785
#        311100
#        323567
#
# Disc length: 4510 seconds
#
# Revision: 2
# Processed by: cddbd v1.5.2PL0 Copyright (c) Steve Scherf et al.
# Submitted via: ExactAudioCopy v0.99pb4
#
DISCID=62119c19
DTITLE=Lonnie Johnson - Complete Recorded Works 1925-1931 Vol. 1
DYEAR=1991
DGENRE=
TTITLE0=Mr. Johnson's Blues
TTITLE1=Falling Rain Blues
TTITLE2=Very Lonesome Blues
TTITLE3=When I Was Lovin' Changed My Mind Blues
TTITLE4=Sun to Sun Blues
TTITLE5=Bed of Sand
TTITLE6=Lonesome Jail Blues
TTITLE7=No Good Blues
TTITLE8=Newport Blues
TTITLE9=Love Story Blues
TTITLE10=Nile of Genago
TTITLE11=Five O'Clock Blues
TTITLE12=Johnson's Trio Stomp
TTITLE13=Woman Changed My Life
TTITLE14=Lonnie's Got the Blues
TTITLE15=Good Old Wagon
TTITLE16=A Good Happy Home
TTITLE17=Baby You Don't Know My Mind
TTITLE18=I Have No Sweet Woman Now
TTITLE19=You Drove a Good Man Away
TTITLE20=Ball and Chain Blues
TTITLE21=You Don't See Into the Blues Like Me
TTITLE22=There's No Use of Lovin'
TTITLE23=Baby, Please Tell Me
TTITLE24=I'm Gonna Dodge the Blues Just Wait and See
EXTD=
EXTT0=
EXTT1=
EXTT2=
EXTT3=
EXTT4=
EXTT5=
EXTT6=
EXTT7=
EXTT8=
EXTT9=
EXTT10=
EXTT11=
EXTT12=
EXTT13=
EXTT14=
EXTT15=
EXTT16=
EXTT17=
EXTT18=
EXTT19=
EXTT20=
EXTT21=
EXTT22=
EXTT23=
EXTT24=
PLAYORDER=
